<svg id="visual" viewBox="0 0 1920 700" width="1920" height="700" xmlns="http://www.w3.org/2000/svg" xmlns:xlink="http://www.w3.org/1999/xlink" version="1.1"><rect x="0" y="0" width="1920" height="700" fill="#FFFFFF"></rect><path d="M0 623L45.7 608.5C91.3 594 182.7 565 274.2 549.5C365.7 534 457.3 532 548.8 530.3C640.3 528.7 731.7 527.3 823 536.2C914.3 545 1005.7 564 1097 574.5C1188.3 585 1279.7 587 1371.2 594.2C1462.7 601.3 1554.3 613.7 1645.8 612.7C1737.3 611.7 1828.7 597.3 1874.3 590.2L1920 583L1920 0L1874.3 0C1828.7 0 1737.3 0 1645.8 0C1554.3 0 1462.7 0 1371.2 0C1279.7 0 1188.3 0 1097 0C1005.7 0 914.3 0 823 0C731.7 0 640.3 0 548.8 0C457.3 0 365.7 0 274.2 0C182.7 0 91.3 0 45.7 0L0 0Z" fill="#001122"></path><path d="M0 451L45.7 446.3C91.3 441.7 182.7 432.3 274.2 432.5C365.7 432.7 457.3 442.3 548.8 447.3C640.3 452.3 731.7 452.7 823 448.2C914.3 443.7 1005.7 434.3 1097 443C1188.3 451.7 1279.7 478.3 1371.2 486.2C1462.7 494 1554.3 483 1645.8 471.7C1737.3 460.3 1828.7 448.7 1874.3 442.8L1920 437L1920 0L1874.3 0C1828.7 0 1737.3 0 1645.8 0C1554.3 0 1462.7 0 1371.2 0C1279.7 0 1188.3 0 1097 0C1005.7 0 914.3 0 823 0C731.7 0 640.3 0 548.8 0C457.3 0 365.7 0 274.2 0C182.7 0 91.3 0 45.7 0L0 0Z" fill="#051a2f"></path><path d="M0 398L45.7 382.5C91.3 367 182.7 336 274.2 324.3C365.7 312.7 457.3 320.3 548.8 325.5C640.3 330.7 731.7 333.3 823 330.7C914.3 328 1005.7 320 1097 318.8C1188.3 317.7 1279.7 323.3 1371.2 333.8C1462.7 344.3 1554.3 359.7 1645.8 360.8C1737.3 362 1828.7 349 1874.3 342.5L1920 336L1920 0L1874.3 0C1828.7 0 1737.3 0 1645.8 0C1554.3 0 1462.7 0 1371.2 0C1279.7 0 1188.3 0 1097 0C1005.7 0 914.3 0 823 0C731.7 0 640.3 0 548.8 0C457.3 0 365.7 0 274.2 0C182.7 0 91.3 0 45.7 0L0 0Z" fill="#0b223c"></path><path d="M0 242L45.7 243.2C91.3 244.3 182.7 246.7 274.2 251C365.7 255.3 457.3 261.7 548.8 258.3C640.3 255 731.7 242 823 239.3C914.3 236.7 1005.7 244.3 1097 235.5C1188.3 226.7 1279.7 201.3 1371.2 207.2C1462.7 213 1554.3 250 1645.8 258C1737.3 266 1828.7 245 1874.3 234.5L1920 224L1920 0L1874.3 0C1828.7 0 1737.3 0 1645.8 0C1554.3 0 1462.7 0 1371.2 0C1279.7 0 1188.3 0 1097 0C1005.7 0 914.3 0 823 0C731.7 0 640.3 0 548.8 0C457.3 0 365.7 0 274.2 0C182.7 0 91.3 0 45.7 0L0 0Z" fill="#132a49"></path><path d="M0 120L45.7 121C91.3 122 182.7 124 274.2 129.8C365.7 135.7 457.3 145.3 548.8 151.2C640.3 157 731.7 159 823 149.7C914.3 140.3 1005.7 119.7 1097 117.3C1188.3 115 1279.7 131 1371.2 125.7C1462.7 120.3 1554.3 93.7 1645.8 91.3C1737.3 89 1828.7 111 1874.3 122L1920 133L1920 0L1874.3 0C1828.7 0 1737.3 0 1645.8 0C1554.3 0 1462.7 0 1371.2 0C1279.7 0 1188.3 0 1097 0C1005.7 0 914.3 0 823 0C731.7 0 640.3 0 548.8 0C457.3 0 365.7 0 274.2 0C182.7 0 91.3 0 45.7 0L0 0Z" fill="#1c3257"></path></svg>